<svg xmlns="http://www.w3.org/2000/svg" version="1.1" xmlns:xlink="http://www.w3.org/1999/xlink" width="467" height="427"><svg width="467" height="427" viewBox="0 0 467 427" fill="none" xmlns="http://www.w3.org/2000/svg">
<path d="M0.419998 0.350098V307.41H217.9C267.38 307.41 307.48 267.3 307.48 217.82V0.340088H0.419998V0.350098ZM239.77 193.91H251.23V205.37H239.77V193.91ZM236.16 144.57H254.78V163.2H236.16V144.57ZM233.3 95.9399H257.65V120.32H233.3V95.9399ZM187.53 141.71H211.91V166.06H187.56L187.53 141.71ZM190.4 117.43V98.8101H209.03V117.43H190.4ZM102.46 239.68H113.92V251.14H102.46V239.68ZM98.88 190.33H117.51V208.93H98.88V190.33ZM102.46 159.62V148.16H113.92V159.62H102.46ZM98.88 98.8101H117.51V117.43H98.88V98.8101ZM56.7 239.68H68.18V251.14H56.7V239.68ZM56.7 193.91H68.18V205.37H56.7V193.91ZM53.12 144.57H71.74V163.2H53.12V144.57ZM50.25 95.9399H74.61V120.32H50.25V95.9399ZM39.54 39.48H268.34V85.24H176.83V268.28H131.07V85.24H39.54V39.48Z" fill="#6D41FF"></path>
<path d="M246.24 422.48C244.46 422.48 242.74 422.09 241.14 421.32C235.03 418.38 232.57 410.61 235.65 404C235.78 403.73 235.9 403.46 236.03 403.19C236.3 402.61 236.58 402.01 236.82 401.56C237.88 399.55 239 398.01 240.09 396.53C240.58 395.85 241.08 395.17 241.58 394.44C244.67 389.61 247.2 385.54 248.69 381.81C248.69 381.58 248.6 380.93 248.07 379.57L247.49 378.07L248.33 376.06C226.74 362.37 210.41 341.98 201.88 318.06L200.16 318.35L198.92 317.66L198.5 317.42C198.06 317.16 196.9 316.49 196.37 316.45C192.38 317.06 188.18 318.57 182.87 320.47L182.62 320.56C181.88 320.85 181.11 321.18 180.35 321.5C178.66 322.23 176.92 322.98 174.72 323.56C174.22 323.69 173.56 323.84 172.93 323.97L172.56 324.05C172.44 324.09 172.33 324.12 172.21 324.14L171.99 324.19H171.86C170.92 324.4 169.96 324.49 169.01 324.49C162.86 324.49 157.67 320.57 156.39 314.97C154.89 308.4 159.38 301.66 166.42 299.91C166.48 299.89 166.74 299.83 166.74 299.83L167.39 299.67C168.01 299.52 168.66 299.36 169.17 299.27C171.39 298.85 173.27 298.78 175.09 298.7C175.94 298.67 176.79 298.63 177.69 298.56H177.81C183.37 297.96 187.8 297.5 191.64 296.34C192.09 295.98 192.9 294.93 193.3 294.4L194.45 292.9L195.95 292.46C193.08 267.1 198.87 241.53 212.4 219.76L211.18 218.67L210.95 217.28L210.88 216.83C210.81 216.37 210.61 214.99 210.3 214.52C207.3 211.74 203.42 209.35 198.55 206.34C197.82 205.91 197.07 205.52 196.33 205.12C194.72 204.26 193.06 203.38 191.24 202.03C190.82 201.72 190.3 201.29 189.8 200.89L189.44 200.6C189.38 200.55 189.31 200.51 189.25 200.46C186.5 198.27 184.69 195.23 184.13 191.9C183.55 188.41 184.4 185.02 186.52 182.36C188.8 179.5 192.28 177.87 196.07 177.87C196.22 177.87 196.37 177.87 196.52 177.87C199.46 177.97 202.39 179.07 204.77 180.96L205.25 181.33C205.78 181.74 206.35 182.2 206.77 182.55C208.49 184.03 209.73 185.46 210.93 186.84C211.48 187.47 212.03 188.1 212.64 188.75L212.73 188.84C216.72 192.89 219.88 196.1 223.24 198.39C223.52 198.54 223.68 198.55 223.85 198.55C224.13 198.55 224.5 198.49 224.94 198.42C225.17 198.38 225.4 198.35 225.63 198.32L227.23 198.1C227.23 198.1 228.67 199.15 228.74 199.2C243.83 184.14 262.72 173.71 283.59 168.97C287.65 168.05 291.8 167.35 295.96 166.88L296.05 165.16L297.17 164.07C298.1 163.17 298.57 162.4 298.74 161.92C299.02 157.89 298.48 153.43 297.81 147.83V147.71C297.68 146.92 297.53 146.09 297.38 145.27C297.05 143.47 296.7 141.61 296.62 139.34C296.6 138.86 296.62 138.24 296.62 137.64V137.15C296.62 137.03 296.62 136.91 296.62 136.78C296.62 129.4 302.21 123.38 309.08 123.38C315.95 123.38 321.54 129.39 321.54 136.78C321.54 137 321.54 137.27 321.55 137.54C321.56 138.17 321.57 138.83 321.55 139.34C321.47 141.6 321.12 143.46 320.79 145.26C320.64 146.08 320.48 146.91 320.36 147.79L320.32 148.16C319.65 153.71 319.12 158.11 319.42 162.1C319.5 162.52 319.64 162.69 320.44 163.42C320.62 163.58 320.8 163.75 320.97 163.91L322.14 165.02C322.14 165.02 322.22 166.82 322.22 166.95C347.41 169.97 370.91 181.32 389.07 199.25L390.66 198.12L392.07 198.2L392.57 198.24C392.92 198.27 393.36 198.3 393.84 198.3C394.5 198.3 394.81 198.22 394.92 198.18C398.21 195.93 401.31 192.77 405.22 188.8L405.51 188.5C406.05 187.92 406.6 187.3 407.14 186.67C408.35 185.28 409.6 183.85 411.33 182.36C411.74 182.01 412.3 181.57 412.81 181.16L413.33 180.75C415.82 178.76 418.91 177.66 422 177.66C425.8 177.66 429.28 179.29 431.55 182.15C433.67 184.81 434.53 188.2 433.94 191.69C433.38 195.02 431.57 198.06 428.84 200.24L428.27 200.7C427.78 201.1 427.27 201.52 426.86 201.83C425.04 203.17 423.38 204.05 421.77 204.91C421.02 205.31 420.26 205.71 419.48 206.17C414.64 209.16 410.74 211.57 407.72 214.37C407.44 214.69 407.39 214.91 407.32 216C407.3 216.24 407.29 216.47 407.27 216.71L407.13 218.25L406 219.29C405.89 219.39 405.72 219.54 405.51 219.73C412.29 230.51 417.17 242.28 420.04 254.77C422.88 267.15 423.64 279.74 422.3 292.26L423.79 292.69L424.6 293.83L424.88 294.24C425.14 294.62 425.92 295.77 426.39 296.06C430.26 297.25 434.74 297.72 440.37 298.31L440.55 298.33C441.36 298.4 442.21 298.43 443.05 298.46C444.88 298.53 446.77 298.61 448.99 299.03C449.5 299.13 450.16 299.29 450.78 299.44C451.07 299.51 451.35 299.58 451.59 299.64C458.72 301.36 463.26 308.12 461.75 314.73C460.47 320.34 455.28 324.26 449.13 324.26C448.17 324.26 447.2 324.16 446.25 323.97C446.13 323.95 446.02 323.93 445.92 323.91L445.65 323.85L445.56 323.82C445.42 323.79 445.24 323.76 445.07 323.72C444.49 323.6 443.9 323.48 443.44 323.36C441.26 322.78 439.52 322.03 437.84 321.3C437.07 320.97 436.29 320.63 435.45 320.31L435.27 320.25C429.94 318.34 425.72 316.82 421.72 316.22C421.69 316.22 421.67 316.22 421.64 316.22C421.27 316.22 421.08 316.31 420.2 316.92C420 317.06 419.8 317.2 419.6 317.33L418.23 318.23C418.23 318.23 416.54 317.89 416.49 317.88C407.98 342.07 391.68 362.59 370.14 376.25L371.03 377.27L370.19 379.51C370.11 379.74 370.01 379.96 369.92 380.19C369.52 381.19 369.46 381.39 369.58 381.79C371.09 385.65 373.68 389.69 376.66 394.36C377.11 395.03 377.61 395.71 378.11 396.39C379.19 397.86 380.3 399.38 381.36 401.38C381.61 401.86 381.92 402.51 382.21 403.12L382.53 403.79C385.64 410.44 383.18 418.21 377.07 421.15C375.47 421.92 373.75 422.31 371.97 422.31C367.01 422.31 362.33 419.24 360.04 414.49L359.75 413.91C359.46 413.32 359.14 412.68 358.93 412.19C358.02 410.11 357.52 408.28 357.04 406.51C356.82 405.71 356.6 404.9 356.33 404.05L356.28 403.9C354.45 398.53 353 394.28 350.97 390.77C350.72 390.42 350.51 390.33 349.46 390.01C349.24 389.94 349.01 389.87 348.79 389.8L347.34 389.33L346.57 388.01C346.52 387.93 346.46 387.81 346.37 387.67C342.51 389 338.56 390.12 334.59 391.03C326.32 392.91 317.86 393.86 309.44 393.86C296.67 393.86 284.1 391.72 272.01 387.5L270.93 389.46L269.28 389.9C268.83 390.02 267.91 390.27 267.61 390.45C265.96 392.46 264.83 395.77 263.64 399.28C263.08 400.93 262.5 402.63 261.82 404.35C261.57 405.16 261.36 405.94 261.15 406.71C260.67 408.47 260.18 410.29 259.28 412.36C259.07 412.83 258.78 413.42 258.5 413.99L258.26 414.47L258.18 414.67L258.05 414.89L258 415L257.98 415.02C255.63 419.56 251.06 422.48 246.23 422.48H246.24ZM309.07 291.2L317.82 286.99L319.99 277.56L313.94 270H304.17L298.11 277.55L300.28 286.98L309.07 291.2Z" fill="white"></path>
<path d="M309.07 127.42C313.74 127.42 317.53 131.63 317.53 136.82C317.53 137.56 317.57 138.54 317.55 139.22C317.44 142.21 316.79 144.5 316.39 147.26C315.68 153.16 315.06 158.05 315.43 162.6C315.76 164.88 317.09 165.78 318.19 166.83C318.22 167.44 318.31 169.48 318.39 170.61C345.28 173 370.25 185.3 388.59 204.53L391.81 202.23C392.29 202.26 393.02 202.34 393.82 202.34C394.86 202.34 396.02 202.21 396.94 201.67C400.72 199.12 404.17 195.59 408.34 191.35C410.25 189.32 411.65 187.39 413.92 185.44C414.44 184.99 415.22 184.4 415.8 183.94C417.67 182.45 419.87 181.72 421.99 181.72C424.48 181.72 426.84 182.73 428.42 184.7C431.33 188.35 430.4 193.93 426.34 197.17C425.77 197.63 425.02 198.27 424.48 198.67C422.07 200.45 419.85 201.36 417.45 202.77C412.39 205.89 408.2 208.48 404.87 211.61C403.3 213.29 403.42 214.88 403.28 216.4C402.81 216.83 401.16 218.3 400.28 219.09C407.57 229.94 413.03 242.25 416.13 255.72C419.19 269.06 419.67 282.39 417.9 295.2L421.32 296.19C421.93 297.06 423.2 299.17 424.97 299.86C429.32 301.23 434.22 301.73 440.13 302.35C442.91 302.58 445.3 302.44 448.24 303C448.94 303.13 449.97 303.41 450.7 303.58C455.68 304.78 458.89 309.37 457.86 313.88C456.98 317.73 453.31 320.29 449.13 320.29C448.41 320.29 447.68 320.21 446.94 320.06C446.9 320.06 446.85 320.06 446.81 320.04C446.75 320.03 446.7 320 446.65 319.99C445.95 319.84 445.07 319.68 444.46 319.52C441.57 318.75 439.47 317.59 436.87 316.59C431.27 314.58 426.64 312.91 422.12 312.25C421.95 312.24 421.79 312.23 421.63 312.23C419.65 312.23 418.57 313.23 417.39 314C416.77 313.88 414.87 313.54 413.78 313.37C405.68 338.84 388.42 360.89 365.03 374.7C365.43 375.67 366.12 377.75 366.44 378.12C365.91 379.55 365.1 380.91 365.79 383.11C367.43 387.37 370.09 391.53 373.29 396.54C374.84 398.85 376.43 400.63 377.83 403.28C378.16 403.91 378.61 404.89 378.93 405.56C381.1 410.21 379.51 415.57 375.33 417.58C374.25 418.1 373.11 418.34 371.96 418.34C368.63 418.34 365.31 416.26 363.63 412.79C363.31 412.13 362.85 411.25 362.58 410.62C361.38 407.88 360.97 405.52 360.12 402.87C358.2 397.24 356.62 392.59 354.32 388.65C353.03 386.74 351.45 386.5 350 386.03C349.73 385.57 348.73 383.73 348.19 382.78C343.46 384.57 338.61 386.03 333.68 387.15C325.55 388.99 317.43 389.88 309.41 389.88C295.79 389.88 282.5 387.32 270.14 382.58L268.22 386.05C266.79 386.43 265.42 386.82 264.58 387.83C261.5 391.5 260.27 397.4 258.03 403.02C257.19 405.67 256.79 408.03 255.59 410.77C255.32 411.39 254.86 412.26 254.54 412.92C254.54 412.92 254.54 412.93 254.54 412.94C254.54 412.94 254.53 412.95 254.52 412.96C252.84 416.43 249.53 418.49 246.21 418.49C245.07 418.49 243.92 418.24 242.85 417.73C238.68 415.72 237.08 410.36 239.25 405.71C239.57 405.04 240 404.07 240.33 403.43C241.73 400.78 243.32 398.99 244.87 396.67C248.07 391.66 250.88 387.17 252.52 382.91C252.93 381.5 252.32 379.56 251.77 378.13L253.31 374.44C230.8 361.1 213.02 339.84 204.54 313.54L200.85 314.17C199.91 313.65 198.08 312.44 196.29 312.44C196.19 312.44 196.09 312.44 195.99 312.45C191.47 313.1 186.84 314.78 181.24 316.79C178.64 317.79 176.54 318.92 173.65 319.7C173.04 319.86 172.16 320.03 171.46 320.19C171.4 320.2 171.35 320.23 171.3 320.24C171.26 320.24 171.21 320.24 171.17 320.26C170.43 320.42 169.7 320.5 168.98 320.5C164.81 320.5 161.14 317.94 160.26 314.09C159.23 309.58 162.43 304.99 167.42 303.79C167.46 303.79 167.51 303.76 167.55 303.75L167.62 303.73C168.33 303.56 169.23 303.33 169.88 303.21C172.82 302.65 175.22 302.79 177.99 302.56C183.9 301.94 188.8 301.44 193.15 300.07C194.53 299.5 195.85 297.61 196.78 296.4L200.32 295.37C196.35 267.89 203.07 240.91 217.58 219.08L214.87 216.66C214.7 215.6 214.47 213.17 213.17 211.78C209.84 208.66 205.65 206.07 200.59 202.94C198.19 201.53 195.99 200.62 193.58 198.84C193.07 198.46 192.39 197.88 191.83 197.43C191.79 197.4 191.74 197.37 191.7 197.34C187.64 194.11 186.71 188.52 189.62 184.87C191.19 182.9 193.56 181.88 196.05 181.88C196.15 181.88 196.26 181.88 196.36 181.88C198.38 181.95 200.48 182.69 202.25 184.1C202.83 184.56 203.61 185.16 204.13 185.6C206.4 187.55 207.78 189.48 209.7 191.51C213.87 195.75 217.32 199.26 221.1 201.81C222.1 202.39 222.99 202.56 223.81 202.56C224.63 202.56 225.37 202.39 226.12 202.29C227.13 203.03 228.15 203.75 229.17 204.46C243.56 189.19 262.47 177.88 284.43 172.89C289.46 171.75 294.57 170.96 299.72 170.54L299.92 166.96C301.05 165.87 302.31 164.3 302.67 162.59C303.04 158.04 302.44 153.15 301.73 147.25C301.34 144.49 300.68 142.2 300.57 139.21C300.55 138.6 300.58 137.75 300.59 137.04C300.59 136.96 300.57 136.89 300.57 136.81C300.57 131.62 304.36 127.41 309.03 127.41M309.07 295.63L321.29 289.76L324.33 276.57L315.87 266H302.26L293.78 276.55L296.82 289.74L309.07 295.63ZM309.07 119.42C300 119.42 292.61 127.23 292.61 136.82C292.61 137 292.61 137.16 292.62 137.3C292.62 137.4 292.62 137.49 292.62 137.59C292.61 138.19 292.59 138.86 292.62 139.51C292.71 142.08 293.1 144.17 293.45 146.02C293.6 146.81 293.74 147.56 293.84 148.31V148.34C294.44 153.31 294.93 157.34 294.8 160.8C294.7 160.92 294.57 161.07 294.4 161.23L292.2 163.36C289.01 163.81 285.84 164.4 282.71 165.1C262.22 169.75 243.57 179.7 228.37 194.01L228.28 193.94L225.09 194.37C224.92 194.39 224.75 194.42 224.58 194.44C221.84 192.4 219.03 189.54 215.58 186.04L215.5 185.96C214.98 185.41 214.49 184.84 213.96 184.23C212.73 182.81 211.33 181.2 209.39 179.53C208.87 179.09 208.27 178.61 207.73 178.19L207.26 177.82C204.24 175.41 200.47 174 196.68 173.88C196.49 173.88 196.29 173.87 196.09 173.87C191.07 173.87 186.45 176.06 183.41 179.87C180.61 183.38 179.44 188.01 180.2 192.56C180.92 196.87 183.25 200.78 186.76 203.58C186.84 203.65 186.92 203.71 187 203.76L187.29 204C187.78 204.4 188.34 204.86 188.87 205.26C190.93 206.78 192.8 207.78 194.46 208.66C195.18 209.04 195.85 209.4 196.51 209.78C200.76 212.4 204.21 214.54 206.84 216.79C206.88 217.01 206.92 217.26 206.94 217.42C206.97 217.61 206.99 217.78 207.02 217.93L207.41 220.32C195.05 241.4 189.57 265.7 191.69 289.95L190.5 291.48C190.38 291.64 190.25 291.81 190.12 291.98C189.95 292.21 189.71 292.52 189.49 292.79C186.2 293.64 182.25 294.06 177.4 294.57H177.29C176.53 294.64 175.76 294.67 174.95 294.7C173.07 294.77 170.95 294.86 168.43 295.33C167.78 295.45 167.07 295.62 166.46 295.78C166.24 295.83 166.03 295.88 165.84 295.93L165.76 295.95L165.68 295.97L165.61 295.99C165.55 296.01 165.48 296.02 165.41 296.04C156.31 298.34 150.53 307.18 152.51 315.85C154.21 323.29 161 328.48 169.03 328.48C170.22 328.48 171.42 328.36 172.6 328.13C172.72 328.11 172.86 328.09 173.01 328.05H173.06L173.11 328.03C173.27 327.99 173.43 327.95 173.57 327.91L173.81 327.86C174.43 327.73 175.13 327.58 175.77 327.41C178.25 326.75 180.21 325.9 181.94 325.16C182.68 324.84 183.37 324.54 184.08 324.27L184.25 324.21C188.88 322.55 192.64 321.2 195.98 320.56C196.17 320.66 196.36 320.78 196.51 320.86C196.68 320.96 196.84 321.05 196.99 321.13L199.25 322.4C207.95 344.81 223.33 364.05 243.38 377.57L243.2 378L244.36 381C244.42 381.16 244.47 381.3 244.52 381.42C243.11 384.54 240.9 388.08 238.23 392.26C237.81 392.89 237.36 393.5 236.88 394.15C235.77 395.67 234.51 397.4 233.31 399.66C233 400.25 232.69 400.91 232.42 401.49C232.3 401.74 232.19 401.98 232.09 402.19L232.07 402.24L232.05 402.29C228.04 410.87 231.35 421.01 239.42 424.9C241.57 425.93 243.86 426.46 246.25 426.46C252.04 426.46 257.53 423.3 260.73 418.26L260.92 418.11L261.74 416.47L261.77 416.4L261.8 416.33L261.96 416C262 415.93 262.03 415.86 262.07 415.78C262.36 415.21 262.68 414.55 262.95 413.94C263.97 411.6 264.53 409.55 265.02 407.73C265.22 407.01 265.4 406.32 265.61 405.65C266.3 403.89 266.88 402.19 267.44 400.53C268.3 398.01 269.18 395.41 270.14 393.79C270.21 393.77 270.27 393.76 270.32 393.74L273.61 392.86L273.9 392.33C285.42 395.99 297.34 397.85 309.43 397.85C318.15 397.85 326.91 396.86 335.47 394.92C338.51 394.23 341.54 393.41 344.53 392.48L344.64 392.66L347.55 393.61C347.72 393.66 347.88 393.72 348.05 393.77C349.62 396.79 350.91 400.56 352.49 405.19L352.54 405.35C352.77 406.07 352.97 406.8 353.18 407.58C353.68 409.4 354.24 411.46 355.27 413.81C355.54 414.43 355.88 415.11 356.17 415.71C356.27 415.91 356.37 416.1 356.45 416.28C359.39 422.38 365.48 426.33 371.97 426.33C374.36 426.33 376.66 425.81 378.81 424.77C386.89 420.88 390.19 410.74 386.18 402.16L386.16 402.11L386.14 402.06C386.05 401.87 385.95 401.65 385.84 401.43C385.55 400.82 385.22 400.12 384.91 399.53C383.71 397.27 382.46 395.55 381.35 394.04C380.87 393.39 380.42 392.77 380 392.14C377.33 387.97 375.16 384.57 373.76 381.4C373.82 381.24 373.89 381.08 373.95 380.92L375.12 377.79C395.07 364.32 410.38 345.05 419.07 322.49L421.81 320.68C421.96 320.58 422.11 320.48 422.25 320.38C425.58 321.03 429.32 322.37 433.92 324.02L434.1 324.08C434.81 324.35 435.51 324.66 436.26 324.98C437.99 325.73 439.94 326.57 442.41 327.24C443.04 327.41 443.7 327.54 444.28 327.66C444.4 327.68 444.52 327.71 444.63 327.73C444.77 327.77 444.91 327.81 445.07 327.84C445.25 327.88 445.42 327.91 445.57 327.94C446.75 328.17 447.95 328.29 449.14 328.29C457.17 328.29 463.97 323.09 465.66 315.65C467.65 306.92 461.78 298.01 452.58 295.79H452.53L452.48 295.77C452.26 295.72 452 295.65 451.73 295.59C451.11 295.43 450.4 295.26 449.73 295.13C447.22 294.65 445.09 294.57 443.21 294.5C442.4 294.47 441.63 294.44 440.87 294.38H440.77C435.85 293.85 431.85 293.43 428.53 292.56C428.4 292.38 428.26 292.18 428.17 292.04C428.05 291.86 427.94 291.71 427.85 291.57L426.54 289.72C427.51 277.75 426.64 265.74 423.92 253.91C421.2 242.08 416.74 230.87 410.62 220.49L410.96 220.17L411.24 217.09C411.26 216.92 411.27 216.75 411.28 216.57C413.9 214.33 417.34 212.21 421.56 209.6C422.22 209.22 422.9 208.86 423.62 208.47C425.28 207.59 427.16 206.59 429.22 205.08C429.76 204.69 430.31 204.23 430.81 203.82C431 203.67 431.18 203.51 431.35 203.38C438.83 197.42 440.32 186.78 434.67 179.69C431.63 175.88 427.01 173.7 421.99 173.7C417.99 173.7 414.02 175.11 410.82 177.67L410.35 178.04C409.82 178.45 409.23 178.92 408.72 179.36C406.77 181.04 405.36 182.65 404.12 184.08C403.6 184.68 403.1 185.25 402.59 185.79L402.36 186.03C398.95 189.49 396.19 192.3 393.48 194.32C393.28 194.31 393.08 194.29 392.87 194.28C392.66 194.26 392.46 194.25 392.29 194.24L389.47 194.07L389.43 194.1C371.83 177.67 349.75 167 326.06 163.46V163.27L323.72 161.04C323.59 160.92 323.46 160.8 323.33 160.68C323.23 157.33 323.7 153.45 324.27 148.67L324.31 148.31C324.42 147.56 324.56 146.81 324.7 146.02C325.04 144.17 325.43 142.07 325.53 139.51C325.55 138.84 325.54 138.13 325.53 137.5C325.53 137.25 325.52 137 325.52 136.78C325.52 127.22 318.14 119.42 309.06 119.42H309.07ZM306.09 274H312.02L315.66 278.55L314.35 284.22L309.07 286.76L303.75 284.2L302.45 278.54L306.1 274H306.09Z" fill="#6D41FF"></path>
<path d="M288.34 248.6C286.78 248.6 285.26 248.29 283.85 247.69L283.59 247.82L281.56 246.47L241.29 217.92L244.7 214.57C256.76 202.71 271.94 194.44 288.58 190.66C291.68 189.96 294.85 189.41 298.01 189.04L302.75 188.47L299.84 239.91L299.41 240.12C298.1 245.03 293.64 248.6 288.35 248.6H288.34Z" fill="#6D41FF"></path>
<path d="M298.48 193.01L295.97 237.37L295.79 237.46C295.62 241.43 292.36 244.6 288.35 244.6C286.71 244.6 285.19 244.07 283.96 243.17L283.89 243.21L247.51 217.42C258.69 206.43 272.99 198.3 289.47 194.56C292.45 193.89 295.46 193.37 298.49 193.01M307 183.93L297.52 185.07C294.23 185.46 290.93 186.03 287.69 186.76C270.31 190.7 254.48 199.33 241.88 211.72L235.06 218.42L242.86 223.95L279.24 249.74L283.14 252.51L284.11 252.03C285.47 252.41 286.88 252.61 288.33 252.61C294.81 252.61 300.36 248.65 302.66 242.97L303.69 242.46L303.95 237.84L306.46 193.48L307 183.95V183.93Z" fill="white"></path>
<path d="M329.68 248.45C326.17 248.45 322.9 246.88 320.72 244.14C319.73 242.91 319.02 241.52 318.62 240.02L318.37 239.9L318.2 237.54L315.42 188.47L320.17 189.05C340 191.49 358.82 200.56 373.15 214.59L376.57 217.94L334.7 247.62L334.33 247.46C332.88 248.11 331.3 248.44 329.68 248.44V248.45Z" fill="#6D41FF"></path>
<path d="M319.67 193.01C338.91 195.38 356.7 204.09 370.34 217.44L334.2 243.06L334.07 243.01C332.75 243.97 331.21 244.44 329.68 244.44C327.49 244.44 325.32 243.48 323.85 241.63C322.86 240.4 322.29 238.89 322.22 237.31L322.18 237.29L319.67 193M311.14 183.9L311.68 193.46L314.19 237.75L314.46 242.49L315.39 242.93C315.94 244.25 316.68 245.5 317.6 246.64C320.53 250.31 324.94 252.43 329.67 252.43C331.23 252.43 332.76 252.2 334.22 251.75L335.18 252.16L338.82 249.58L374.96 223.96L382.77 218.42L375.93 211.72C360.98 197.08 341.34 187.61 320.64 185.06L311.13 183.89L311.14 183.9Z" fill="white"></path>
<path d="M217.97 289.56C215.78 269.53 220.37 249.05 230.9 231.9L233.41 227.82L271.89 262.24L271.8 262.68C274.85 266.77 274.87 272.49 271.56 276.64C270.56 277.89 269.34 278.9 267.95 279.63L267.85 280.04L218.5 294.29L217.98 289.56H217.97Z" fill="#6D41FF"></path>
<path d="M234.31 234L267.52 263.71L267.48 263.89C270.48 266.5 270.92 271.02 268.42 274.15C267.43 275.39 266.08 276.28 264.55 276.7L264.51 276.84L221.94 289.13C219.77 269.32 224.44 250.06 234.3 234M232.5 221.65L227.49 229.81C216.5 247.71 211.71 269.09 214 290L215.03 299.45L224.17 296.81L266.74 284.52L271.17 283.24L271.43 282.18C272.65 281.33 273.74 280.31 274.68 279.12C278.73 274.04 279.08 267.21 276.04 261.87L276.26 260.78L272.85 257.73L239.64 228.02L232.5 221.63V221.65Z" fill="white"></path>
<path d="M350.09 279.83L350 279.36C345.57 276.97 343.14 271.86 344.31 266.74C344.66 265.2 345.33 263.74 346.27 262.48L346.22 262.21L347.89 260.61L384.48 227.86L386.99 231.93C392.27 240.5 396.11 249.86 398.38 259.75C400.63 269.54 401.28 279.51 400.3 289.39L399.83 294.17L350.08 279.84L350.09 279.83Z" fill="#6D41FF"></path>
<path d="M383.59 234.01C388.52 242.01 392.26 250.94 394.49 260.63C396.69 270.2 397.24 279.75 396.33 288.98L353.54 276.66L353.5 276.48C349.67 275.43 347.31 271.54 348.21 267.63C348.56 266.09 349.39 264.71 350.58 263.67L350.56 263.58L383.59 234.02M385.38 221.68L378.26 228.06L345.23 257.62L341.84 260.65L342.03 261.65C341.29 262.95 340.74 264.37 340.4 265.87C338.98 272.09 341.51 278.3 346.41 281.83L346.65 283.01L351.33 284.36L394.12 296.68L403.36 299.34L404.3 289.77C405.31 279.46 404.64 269.05 402.29 258.85C399.92 248.53 395.92 238.76 390.41 229.82L385.39 221.68H385.38Z" fill="white"></path>
<path d="M334.78 312.07L335 311.78C334.04 306.78 336.51 301.61 341.29 299.31C342.69 298.63 344.17 298.25 345.68 298.18C345.71 298.18 345.74 298.18 345.77 298.18L346.01 297.88L397.08 306.51L395.48 311C388.7 330.04 375.61 346.49 358.61 357.32L354.59 359.88L334.8 312.07H334.78Z" fill="#6D41FF"></path>
<path d="M346.2 302.17C346.67 302.17 347.14 302.22 347.6 302.3L347.67 302.21L391.71 309.66C385.27 327.77 372.93 343.45 356.46 353.95L339.37 312.66L339.42 312.59C337.85 308.94 339.42 304.66 343.03 302.92C343.95 302.47 344.92 302.23 345.88 302.18C345.99 302.18 346.09 302.18 346.2 302.18M344.36 293.54L343.68 294.38C342.26 294.62 340.88 295.07 339.54 295.71C333.67 298.54 330.37 304.57 330.82 310.72L330.22 311.53L331.95 315.72L349.04 357.01L352.69 365.82L360.73 360.7C378.48 349.39 392.15 332.22 399.22 312.35L402.42 303.37L393.02 301.78L348.98 294.33L344.34 293.55L344.36 293.54Z" fill="white"></path>
<path d="M259.71 357.15C242.57 346.15 229.86 330.25 222.96 311.16L221.33 306.66L272.04 298.05L272.29 298.36C277.45 298.58 281.82 302.19 282.97 307.26C283.32 308.8 283.35 310.37 283.07 311.89L283.37 312.27L263.73 359.72L259.7 357.14L259.71 357.15Z" fill="#6D41FF"></path>
<path d="M271.82 302.35C271.82 302.35 271.88 302.35 271.92 302.35C275.28 302.4 278.29 304.73 279.08 308.15C279.45 309.75 279.27 311.34 278.66 312.74L278.79 312.9L261.88 353.78C246.07 343.63 233.47 328.44 226.73 309.8L270.39 302.39L270.46 302.48C270.92 302.4 271.38 302.35 271.83 302.35M273.68 293.72L269.04 294.51L225.38 301.92L215.94 303.52L219.19 312.52C226.39 332.44 239.65 349.04 257.54 360.52L265.59 365.69L269.25 356.85L286.16 315.97L287.94 311.67L287.22 310.75C287.31 309.3 287.19 307.83 286.86 306.38C285.44 300.18 280.46 295.58 274.35 294.57L273.67 293.72H273.68Z" fill="white"></path>
<path d="M309.12 371.68C299.09 371.68 289.19 370.04 279.69 366.8L275.17 365.26L300.09 320.2H300.42C302.48 317.84 305.46 316.38 308.65 316.26C308.79 316.26 308.92 316.26 309.05 316.26C310.77 316.26 312.49 316.66 314.03 317.41C315.44 318.09 316.68 319.03 317.69 320.19H318.14L343.13 365.35L338.57 366.87C335.63 367.85 332.61 368.7 329.58 369.38C322.84 370.91 315.95 371.69 309.11 371.69L309.12 371.68Z" fill="#6D41FF"></path>
<path d="M309.05 320.26C310.17 320.26 311.27 320.51 312.28 321C313.76 321.71 314.9 322.84 315.62 324.18H315.78L337.3 363.07C334.47 364.01 331.6 364.82 328.7 365.47C322.13 366.96 315.57 367.68 309.11 367.68C299.39 367.68 289.9 366.06 280.97 363.02L302.44 324.21H302.48C303.73 321.87 306.13 320.37 308.79 320.27C308.88 320.27 308.96 320.27 309.05 320.27M309.05 312.26C308.87 312.26 308.69 312.26 308.52 312.26C304.86 312.39 301.42 313.83 298.77 316.19H297.78L295.46 320.32L273.99 359.13L269.37 367.49L278.42 370.57C288.34 373.95 298.67 375.66 309.14 375.66C316.28 375.66 323.47 374.85 330.5 373.25C333.65 372.54 336.8 371.66 339.87 370.63L348.99 367.58L344.33 359.17L322.81 320.28L320.53 316.15H319.38C318.31 315.2 317.11 314.4 315.79 313.76C313.73 312.76 311.41 312.22 309.09 312.22L309.05 312.26Z" fill="white"></path>
</svg><style>@media (prefers-color-scheme: light) { :root { filter: none; } }
@media (prefers-color-scheme: dark) { :root { filter: none; } }
</style></svg>